<mxfile host="app.diagrams.net" modified="2024-06-24T10:25:13.110Z" agent="Mozilla/5.0 (Windows NT 10.0; Win64; x64) AppleWebKit/537.36 (KHTML, like Gecko) Chrome/126.0.0.0 Safari/537.36" etag="Z4nOhS1co_uBVAD5R6em" version="24.5.2" type="device">
  <diagram name="Strona-1" id="4r2NdIrtN3ucWs6_jc82">
    <mxGraphModel dx="2226" dy="744" grid="1" gridSize="10" guides="1" tooltips="1" connect="1" arrows="1" fold="1" page="1" pageScale="1" pageWidth="827" pageHeight="1169" math="0" shadow="0">
      <root>
        <mxCell id="0" />
        <mxCell id="1" parent="0" />
        <mxCell id="tBwqaOOPQ_VqR0WvuA2_-18" style="rounded=0;orthogonalLoop=1;jettySize=auto;html=1;exitX=1;exitY=0.5;exitDx=0;exitDy=0;entryX=0;entryY=0.5;entryDx=0;entryDy=0;endArrow=none;endFill=0;" edge="1" parent="1" source="tBwqaOOPQ_VqR0WvuA2_-1" target="tBwqaOOPQ_VqR0WvuA2_-15">
          <mxGeometry relative="1" as="geometry" />
        </mxCell>
        <mxCell id="tBwqaOOPQ_VqR0WvuA2_-1" value="Users" style="rounded=0;whiteSpace=wrap;html=1;" vertex="1" parent="1">
          <mxGeometry x="140" y="125" width="120" height="60" as="geometry" />
        </mxCell>
        <mxCell id="tBwqaOOPQ_VqR0WvuA2_-8" style="rounded=0;orthogonalLoop=1;jettySize=auto;html=1;exitX=1;exitY=0;exitDx=0;exitDy=0;entryX=0;entryY=1;entryDx=0;entryDy=0;endArrow=none;endFill=0;" edge="1" parent="1" source="tBwqaOOPQ_VqR0WvuA2_-2" target="tBwqaOOPQ_VqR0WvuA2_-1">
          <mxGeometry relative="1" as="geometry" />
        </mxCell>
        <mxCell id="tBwqaOOPQ_VqR0WvuA2_-2" value="Password" style="ellipse;whiteSpace=wrap;html=1;" vertex="1" parent="1">
          <mxGeometry x="20" y="225" width="105" height="70" as="geometry" />
        </mxCell>
        <mxCell id="tBwqaOOPQ_VqR0WvuA2_-9" style="rounded=0;orthogonalLoop=1;jettySize=auto;html=1;exitX=0.5;exitY=0;exitDx=0;exitDy=0;endArrow=none;endFill=0;" edge="1" parent="1" source="tBwqaOOPQ_VqR0WvuA2_-3" target="tBwqaOOPQ_VqR0WvuA2_-1">
          <mxGeometry relative="1" as="geometry" />
        </mxCell>
        <mxCell id="tBwqaOOPQ_VqR0WvuA2_-3" value="PlayerOrAdmin" style="ellipse;whiteSpace=wrap;html=1;" vertex="1" parent="1">
          <mxGeometry x="147.5" y="240" width="105" height="70" as="geometry" />
        </mxCell>
        <mxCell id="tBwqaOOPQ_VqR0WvuA2_-7" style="edgeStyle=orthogonalEdgeStyle;rounded=0;orthogonalLoop=1;jettySize=auto;html=1;exitX=1;exitY=0.5;exitDx=0;exitDy=0;entryX=0;entryY=0.5;entryDx=0;entryDy=0;endArrow=none;endFill=0;" edge="1" parent="1" source="tBwqaOOPQ_VqR0WvuA2_-4" target="tBwqaOOPQ_VqR0WvuA2_-1">
          <mxGeometry relative="1" as="geometry" />
        </mxCell>
        <mxCell id="tBwqaOOPQ_VqR0WvuA2_-4" value="Username" style="ellipse;whiteSpace=wrap;html=1;" vertex="1" parent="1">
          <mxGeometry x="20" y="120" width="105" height="70" as="geometry" />
        </mxCell>
        <mxCell id="tBwqaOOPQ_VqR0WvuA2_-6" style="rounded=0;orthogonalLoop=1;jettySize=auto;html=1;exitX=1;exitY=1;exitDx=0;exitDy=0;endArrow=none;endFill=0;" edge="1" parent="1" source="tBwqaOOPQ_VqR0WvuA2_-5" target="tBwqaOOPQ_VqR0WvuA2_-1">
          <mxGeometry relative="1" as="geometry" />
        </mxCell>
        <mxCell id="tBwqaOOPQ_VqR0WvuA2_-5" value="&lt;u&gt;Email&lt;/u&gt;" style="ellipse;whiteSpace=wrap;html=1;" vertex="1" parent="1">
          <mxGeometry x="65" y="10" width="105" height="70" as="geometry" />
        </mxCell>
        <mxCell id="tBwqaOOPQ_VqR0WvuA2_-10" value="Characters" style="rounded=0;whiteSpace=wrap;html=1;" vertex="1" parent="1">
          <mxGeometry x="480" y="130" width="120" height="60" as="geometry" />
        </mxCell>
        <mxCell id="tBwqaOOPQ_VqR0WvuA2_-20" style="rounded=0;orthogonalLoop=1;jettySize=auto;html=1;exitX=1;exitY=1;exitDx=0;exitDy=0;entryX=0;entryY=0;entryDx=0;entryDy=0;endArrow=none;endFill=0;" edge="1" parent="1" source="tBwqaOOPQ_VqR0WvuA2_-11" target="tBwqaOOPQ_VqR0WvuA2_-10">
          <mxGeometry relative="1" as="geometry" />
        </mxCell>
        <mxCell id="tBwqaOOPQ_VqR0WvuA2_-11" value="&lt;u&gt;CharId&lt;/u&gt;" style="ellipse;whiteSpace=wrap;html=1;" vertex="1" parent="1">
          <mxGeometry x="370" y="20" width="105" height="70" as="geometry" />
        </mxCell>
        <mxCell id="tBwqaOOPQ_VqR0WvuA2_-21" style="rounded=0;orthogonalLoop=1;jettySize=auto;html=1;exitX=0.5;exitY=1;exitDx=0;exitDy=0;endArrow=none;endFill=0;" edge="1" parent="1" source="tBwqaOOPQ_VqR0WvuA2_-12" target="tBwqaOOPQ_VqR0WvuA2_-10">
          <mxGeometry relative="1" as="geometry" />
        </mxCell>
        <mxCell id="tBwqaOOPQ_VqR0WvuA2_-12" value="Exp_Level" style="ellipse;whiteSpace=wrap;html=1;" vertex="1" parent="1">
          <mxGeometry x="500" y="30" width="105" height="70" as="geometry" />
        </mxCell>
        <mxCell id="tBwqaOOPQ_VqR0WvuA2_-22" style="rounded=0;orthogonalLoop=1;jettySize=auto;html=1;exitX=0;exitY=0.5;exitDx=0;exitDy=0;entryX=1;entryY=0;entryDx=0;entryDy=0;endArrow=none;endFill=0;" edge="1" parent="1" source="tBwqaOOPQ_VqR0WvuA2_-13" target="tBwqaOOPQ_VqR0WvuA2_-10">
          <mxGeometry relative="1" as="geometry" />
        </mxCell>
        <mxCell id="tBwqaOOPQ_VqR0WvuA2_-13" value="Gold" style="ellipse;whiteSpace=wrap;html=1;" vertex="1" parent="1">
          <mxGeometry x="620" y="90" width="105" height="70" as="geometry" />
        </mxCell>
        <mxCell id="tBwqaOOPQ_VqR0WvuA2_-17" style="rounded=0;orthogonalLoop=1;jettySize=auto;html=1;exitX=1;exitY=0.5;exitDx=0;exitDy=0;entryX=0;entryY=0.5;entryDx=0;entryDy=0;endArrow=none;endFill=0;" edge="1" parent="1" source="tBwqaOOPQ_VqR0WvuA2_-15" target="tBwqaOOPQ_VqR0WvuA2_-10">
          <mxGeometry relative="1" as="geometry" />
        </mxCell>
        <mxCell id="tBwqaOOPQ_VqR0WvuA2_-15" value="Usermail" style="rhombus;whiteSpace=wrap;html=1;" vertex="1" parent="1">
          <mxGeometry x="290" y="125" width="147" height="80" as="geometry" />
        </mxCell>
        <mxCell id="tBwqaOOPQ_VqR0WvuA2_-25" style="rounded=0;orthogonalLoop=1;jettySize=auto;html=1;exitX=0;exitY=1;exitDx=0;exitDy=0;" edge="1" parent="1" source="tBwqaOOPQ_VqR0WvuA2_-16" target="tBwqaOOPQ_VqR0WvuA2_-23">
          <mxGeometry relative="1" as="geometry" />
        </mxCell>
        <mxCell id="tBwqaOOPQ_VqR0WvuA2_-16" value="Class_name" style="rhombus;whiteSpace=wrap;html=1;" vertex="1" parent="1">
          <mxGeometry x="560" y="240" width="147" height="80" as="geometry" />
        </mxCell>
        <mxCell id="tBwqaOOPQ_VqR0WvuA2_-19" style="rounded=0;orthogonalLoop=1;jettySize=auto;html=1;exitX=1;exitY=1;exitDx=0;exitDy=0;entryX=0.551;entryY=0.05;entryDx=0;entryDy=0;entryPerimeter=0;endArrow=none;endFill=0;" edge="1" parent="1" source="tBwqaOOPQ_VqR0WvuA2_-10" target="tBwqaOOPQ_VqR0WvuA2_-16">
          <mxGeometry relative="1" as="geometry" />
        </mxCell>
        <mxCell id="tBwqaOOPQ_VqR0WvuA2_-23" value="Classes" style="rounded=0;whiteSpace=wrap;html=1;" vertex="1" parent="1">
          <mxGeometry x="500" y="390" width="120" height="60" as="geometry" />
        </mxCell>
        <mxCell id="tBwqaOOPQ_VqR0WvuA2_-33" style="rounded=0;orthogonalLoop=1;jettySize=auto;html=1;exitX=1;exitY=0.5;exitDx=0;exitDy=0;entryX=0;entryY=0.25;entryDx=0;entryDy=0;endArrow=none;endFill=0;" edge="1" parent="1" source="tBwqaOOPQ_VqR0WvuA2_-26" target="tBwqaOOPQ_VqR0WvuA2_-23">
          <mxGeometry relative="1" as="geometry" />
        </mxCell>
        <mxCell id="tBwqaOOPQ_VqR0WvuA2_-26" value="Health" style="ellipse;whiteSpace=wrap;html=1;" vertex="1" parent="1">
          <mxGeometry x="361" y="380" width="105" height="70" as="geometry" />
        </mxCell>
        <mxCell id="tBwqaOOPQ_VqR0WvuA2_-34" style="rounded=0;orthogonalLoop=1;jettySize=auto;html=1;exitX=1;exitY=0;exitDx=0;exitDy=0;entryX=0;entryY=1;entryDx=0;entryDy=0;endArrow=none;endFill=0;" edge="1" parent="1" source="tBwqaOOPQ_VqR0WvuA2_-27" target="tBwqaOOPQ_VqR0WvuA2_-23">
          <mxGeometry relative="1" as="geometry" />
        </mxCell>
        <mxCell id="tBwqaOOPQ_VqR0WvuA2_-27" value="Attack" style="ellipse;whiteSpace=wrap;html=1;" vertex="1" parent="1">
          <mxGeometry x="380" y="480" width="105" height="70" as="geometry" />
        </mxCell>
        <mxCell id="tBwqaOOPQ_VqR0WvuA2_-35" style="rounded=0;orthogonalLoop=1;jettySize=auto;html=1;exitX=0.5;exitY=0;exitDx=0;exitDy=0;entryX=0.25;entryY=1;entryDx=0;entryDy=0;endArrow=none;endFill=0;" edge="1" parent="1" source="tBwqaOOPQ_VqR0WvuA2_-28" target="tBwqaOOPQ_VqR0WvuA2_-23">
          <mxGeometry relative="1" as="geometry" />
        </mxCell>
        <mxCell id="tBwqaOOPQ_VqR0WvuA2_-28" value="SpriteSet" style="ellipse;whiteSpace=wrap;html=1;" vertex="1" parent="1">
          <mxGeometry x="515" y="515" width="105" height="70" as="geometry" />
        </mxCell>
        <mxCell id="tBwqaOOPQ_VqR0WvuA2_-36" style="rounded=0;orthogonalLoop=1;jettySize=auto;html=1;exitX=0;exitY=0;exitDx=0;exitDy=0;entryX=1;entryY=1;entryDx=0;entryDy=0;endArrow=none;endFill=0;" edge="1" parent="1" source="tBwqaOOPQ_VqR0WvuA2_-29" target="tBwqaOOPQ_VqR0WvuA2_-23">
          <mxGeometry relative="1" as="geometry" />
        </mxCell>
        <mxCell id="tBwqaOOPQ_VqR0WvuA2_-29" value="Defense" style="ellipse;whiteSpace=wrap;html=1;" vertex="1" parent="1">
          <mxGeometry x="650" y="470" width="105" height="70" as="geometry" />
        </mxCell>
        <mxCell id="tBwqaOOPQ_VqR0WvuA2_-32" style="rounded=0;orthogonalLoop=1;jettySize=auto;html=1;exitX=1;exitY=1;exitDx=0;exitDy=0;entryX=0.25;entryY=0;entryDx=0;entryDy=0;endArrow=none;endFill=0;" edge="1" parent="1" source="tBwqaOOPQ_VqR0WvuA2_-30" target="tBwqaOOPQ_VqR0WvuA2_-23">
          <mxGeometry relative="1" as="geometry" />
        </mxCell>
        <mxCell id="tBwqaOOPQ_VqR0WvuA2_-30" value="&lt;u&gt;Class_Name&lt;/u&gt;" style="ellipse;whiteSpace=wrap;html=1;" vertex="1" parent="1">
          <mxGeometry x="410" y="290" width="105" height="70" as="geometry" />
        </mxCell>
        <mxCell id="tBwqaOOPQ_VqR0WvuA2_-37" style="rounded=0;orthogonalLoop=1;jettySize=auto;html=1;exitX=0;exitY=0.5;exitDx=0;exitDy=0;entryX=1;entryY=0.5;entryDx=0;entryDy=0;endArrow=none;endFill=0;" edge="1" parent="1" source="tBwqaOOPQ_VqR0WvuA2_-31" target="tBwqaOOPQ_VqR0WvuA2_-23">
          <mxGeometry relative="1" as="geometry" />
        </mxCell>
        <mxCell id="tBwqaOOPQ_VqR0WvuA2_-31" value="Difficulty" style="ellipse;whiteSpace=wrap;html=1;" vertex="1" parent="1">
          <mxGeometry x="650" y="370" width="105" height="70" as="geometry" />
        </mxCell>
        <mxCell id="tBwqaOOPQ_VqR0WvuA2_-62" style="rounded=0;orthogonalLoop=1;jettySize=auto;html=1;exitX=0.75;exitY=0;exitDx=0;exitDy=0;entryX=0;entryY=1;entryDx=0;entryDy=0;" edge="1" parent="1" source="tBwqaOOPQ_VqR0WvuA2_-39" target="tBwqaOOPQ_VqR0WvuA2_-60">
          <mxGeometry relative="1" as="geometry" />
        </mxCell>
        <mxCell id="tBwqaOOPQ_VqR0WvuA2_-39" value="Items" style="rounded=0;whiteSpace=wrap;html=1;" vertex="1" parent="1">
          <mxGeometry x="-30" y="670" width="120" height="60" as="geometry" />
        </mxCell>
        <mxCell id="tBwqaOOPQ_VqR0WvuA2_-51" style="rounded=0;orthogonalLoop=1;jettySize=auto;html=1;exitX=1;exitY=0.5;exitDx=0;exitDy=0;entryX=0;entryY=0;entryDx=0;entryDy=0;endArrow=none;endFill=0;" edge="1" parent="1" source="tBwqaOOPQ_VqR0WvuA2_-40" target="tBwqaOOPQ_VqR0WvuA2_-39">
          <mxGeometry relative="1" as="geometry" />
        </mxCell>
        <mxCell id="tBwqaOOPQ_VqR0WvuA2_-40" value="&lt;span style=&quot;font-family: monospace; text-align: start; text-wrap: nowrap;&quot;&gt;&lt;u style=&quot;&quot;&gt;&lt;font style=&quot;font-size: 12px;&quot;&gt;itemID&lt;/font&gt;&lt;/u&gt;&lt;/span&gt;" style="ellipse;whiteSpace=wrap;html=1;" vertex="1" parent="1">
          <mxGeometry x="-200" y="560" width="105" height="70" as="geometry" />
        </mxCell>
        <mxCell id="tBwqaOOPQ_VqR0WvuA2_-53" style="rounded=0;orthogonalLoop=1;jettySize=auto;html=1;exitX=0.5;exitY=0;exitDx=0;exitDy=0;entryX=0;entryY=0.75;entryDx=0;entryDy=0;endArrow=none;endFill=0;" edge="1" parent="1" source="tBwqaOOPQ_VqR0WvuA2_-41" target="tBwqaOOPQ_VqR0WvuA2_-39">
          <mxGeometry relative="1" as="geometry" />
        </mxCell>
        <mxCell id="tBwqaOOPQ_VqR0WvuA2_-41" value="Kind" style="ellipse;whiteSpace=wrap;html=1;" vertex="1" parent="1">
          <mxGeometry x="-150" y="790" width="105" height="70" as="geometry" />
        </mxCell>
        <mxCell id="tBwqaOOPQ_VqR0WvuA2_-54" style="rounded=0;orthogonalLoop=1;jettySize=auto;html=1;exitX=0.5;exitY=0;exitDx=0;exitDy=0;entryX=0.25;entryY=1;entryDx=0;entryDy=0;endArrow=none;endFill=0;" edge="1" parent="1" source="tBwqaOOPQ_VqR0WvuA2_-42" target="tBwqaOOPQ_VqR0WvuA2_-39">
          <mxGeometry relative="1" as="geometry" />
        </mxCell>
        <mxCell id="tBwqaOOPQ_VqR0WvuA2_-42" value="Defense" style="ellipse;whiteSpace=wrap;html=1;" vertex="1" parent="1">
          <mxGeometry x="-30" y="850" width="105" height="70" as="geometry" />
        </mxCell>
        <mxCell id="tBwqaOOPQ_VqR0WvuA2_-56" style="rounded=0;orthogonalLoop=1;jettySize=auto;html=1;exitX=0.5;exitY=0;exitDx=0;exitDy=0;entryX=0.892;entryY=1.017;entryDx=0;entryDy=0;entryPerimeter=0;endArrow=none;endFill=0;" edge="1" parent="1" source="tBwqaOOPQ_VqR0WvuA2_-43" target="tBwqaOOPQ_VqR0WvuA2_-39">
          <mxGeometry relative="1" as="geometry" />
        </mxCell>
        <mxCell id="tBwqaOOPQ_VqR0WvuA2_-43" value="Max_hp" style="ellipse;whiteSpace=wrap;html=1;" vertex="1" parent="1">
          <mxGeometry x="220" y="810" width="105" height="70" as="geometry" />
        </mxCell>
        <mxCell id="tBwqaOOPQ_VqR0WvuA2_-50" style="rounded=0;orthogonalLoop=1;jettySize=auto;html=1;exitX=1;exitY=1;exitDx=0;exitDy=0;entryX=0.25;entryY=0;entryDx=0;entryDy=0;endArrow=none;endFill=0;" edge="1" parent="1" source="tBwqaOOPQ_VqR0WvuA2_-44" target="tBwqaOOPQ_VqR0WvuA2_-39">
          <mxGeometry relative="1" as="geometry" />
        </mxCell>
        <mxCell id="tBwqaOOPQ_VqR0WvuA2_-44" value="EquipableFor" style="ellipse;whiteSpace=wrap;html=1;" vertex="1" parent="1">
          <mxGeometry x="-120" y="470" width="105" height="70" as="geometry" />
        </mxCell>
        <mxCell id="tBwqaOOPQ_VqR0WvuA2_-52" style="rounded=0;orthogonalLoop=1;jettySize=auto;html=1;exitX=1;exitY=0.5;exitDx=0;exitDy=0;entryX=0;entryY=0.25;entryDx=0;entryDy=0;endArrow=none;endFill=0;" edge="1" parent="1" source="tBwqaOOPQ_VqR0WvuA2_-45" target="tBwqaOOPQ_VqR0WvuA2_-39">
          <mxGeometry relative="1" as="geometry" />
        </mxCell>
        <mxCell id="tBwqaOOPQ_VqR0WvuA2_-45" value="Sprite" style="ellipse;whiteSpace=wrap;html=1;" vertex="1" parent="1">
          <mxGeometry x="-211" y="680" width="105" height="70" as="geometry" />
        </mxCell>
        <mxCell id="tBwqaOOPQ_VqR0WvuA2_-57" style="rounded=0;orthogonalLoop=1;jettySize=auto;html=1;exitX=0;exitY=0;exitDx=0;exitDy=0;entryX=1;entryY=0.75;entryDx=0;entryDy=0;endArrow=none;endFill=0;" edge="1" parent="1" source="tBwqaOOPQ_VqR0WvuA2_-46" target="tBwqaOOPQ_VqR0WvuA2_-39">
          <mxGeometry relative="1" as="geometry" />
        </mxCell>
        <mxCell id="tBwqaOOPQ_VqR0WvuA2_-46" value="Attack" style="ellipse;whiteSpace=wrap;html=1;" vertex="1" parent="1">
          <mxGeometry x="320" y="760" width="105" height="70" as="geometry" />
        </mxCell>
        <mxCell id="tBwqaOOPQ_VqR0WvuA2_-58" style="rounded=0;orthogonalLoop=1;jettySize=auto;html=1;exitX=0;exitY=0.5;exitDx=0;exitDy=0;entryX=1;entryY=0.5;entryDx=0;entryDy=0;endArrow=none;endFill=0;" edge="1" parent="1" source="tBwqaOOPQ_VqR0WvuA2_-47" target="tBwqaOOPQ_VqR0WvuA2_-39">
          <mxGeometry relative="1" as="geometry" />
        </mxCell>
        <mxCell id="tBwqaOOPQ_VqR0WvuA2_-47" value="Cost" style="ellipse;whiteSpace=wrap;html=1;" vertex="1" parent="1">
          <mxGeometry x="350" y="670" width="105" height="70" as="geometry" />
        </mxCell>
        <mxCell id="tBwqaOOPQ_VqR0WvuA2_-59" style="rounded=0;orthogonalLoop=1;jettySize=auto;html=1;exitX=0;exitY=0.5;exitDx=0;exitDy=0;entryX=1;entryY=0.25;entryDx=0;entryDy=0;endArrow=none;endFill=0;" edge="1" parent="1" source="tBwqaOOPQ_VqR0WvuA2_-48" target="tBwqaOOPQ_VqR0WvuA2_-39">
          <mxGeometry relative="1" as="geometry" />
        </mxCell>
        <mxCell id="tBwqaOOPQ_VqR0WvuA2_-48" value="Regen_hp" style="ellipse;whiteSpace=wrap;html=1;" vertex="1" parent="1">
          <mxGeometry x="332" y="580" width="105" height="70" as="geometry" />
        </mxCell>
        <mxCell id="tBwqaOOPQ_VqR0WvuA2_-55" style="rounded=0;orthogonalLoop=1;jettySize=auto;html=1;exitX=0.5;exitY=0;exitDx=0;exitDy=0;endArrow=none;endFill=0;" edge="1" parent="1" source="tBwqaOOPQ_VqR0WvuA2_-49" target="tBwqaOOPQ_VqR0WvuA2_-39">
          <mxGeometry relative="1" as="geometry" />
        </mxCell>
        <mxCell id="tBwqaOOPQ_VqR0WvuA2_-49" value="Name" style="ellipse;whiteSpace=wrap;html=1;" vertex="1" parent="1">
          <mxGeometry x="100" y="860" width="105" height="70" as="geometry" />
        </mxCell>
        <mxCell id="tBwqaOOPQ_VqR0WvuA2_-61" style="rounded=0;orthogonalLoop=1;jettySize=auto;html=1;exitX=1;exitY=0;exitDx=0;exitDy=0;entryX=0;entryY=1;entryDx=0;entryDy=0;" edge="1" parent="1" source="tBwqaOOPQ_VqR0WvuA2_-60" target="tBwqaOOPQ_VqR0WvuA2_-10">
          <mxGeometry relative="1" as="geometry" />
        </mxCell>
        <mxCell id="tBwqaOOPQ_VqR0WvuA2_-60" value="Equipment" style="rhombus;whiteSpace=wrap;html=1;" vertex="1" parent="1">
          <mxGeometry x="75" y="390" width="147" height="80" as="geometry" />
        </mxCell>
        <mxCell id="tBwqaOOPQ_VqR0WvuA2_-66" style="rounded=0;orthogonalLoop=1;jettySize=auto;html=1;exitX=1;exitY=1;exitDx=0;exitDy=0;entryX=0;entryY=0;entryDx=0;entryDy=0;endArrow=none;endFill=0;" edge="1" parent="1" source="tBwqaOOPQ_VqR0WvuA2_-64" target="tBwqaOOPQ_VqR0WvuA2_-60">
          <mxGeometry relative="1" as="geometry" />
        </mxCell>
        <mxCell id="tBwqaOOPQ_VqR0WvuA2_-64" value="Quantity" style="ellipse;whiteSpace=wrap;html=1;" vertex="1" parent="1">
          <mxGeometry x="10" y="330" width="105" height="70" as="geometry" />
        </mxCell>
        <mxCell id="tBwqaOOPQ_VqR0WvuA2_-67" style="rounded=0;orthogonalLoop=1;jettySize=auto;html=1;exitX=0;exitY=0;exitDx=0;exitDy=0;entryX=1;entryY=1;entryDx=0;entryDy=0;endArrow=none;endFill=0;" edge="1" parent="1" source="tBwqaOOPQ_VqR0WvuA2_-65" target="tBwqaOOPQ_VqR0WvuA2_-60">
          <mxGeometry relative="1" as="geometry" />
        </mxCell>
        <mxCell id="tBwqaOOPQ_VqR0WvuA2_-65" value="IsEquipped" style="ellipse;whiteSpace=wrap;html=1;" vertex="1" parent="1">
          <mxGeometry x="200" y="460" width="105" height="70" as="geometry" />
        </mxCell>
        <mxCell id="tBwqaOOPQ_VqR0WvuA2_-68" value="Enemies" style="rounded=0;whiteSpace=wrap;html=1;" vertex="1" parent="1">
          <mxGeometry x="-300" y="135" width="120" height="60" as="geometry" />
        </mxCell>
        <mxCell id="tBwqaOOPQ_VqR0WvuA2_-78" style="rounded=0;orthogonalLoop=1;jettySize=auto;html=1;exitX=0.5;exitY=1;exitDx=0;exitDy=0;endArrow=none;endFill=0;" edge="1" parent="1" source="tBwqaOOPQ_VqR0WvuA2_-71" target="tBwqaOOPQ_VqR0WvuA2_-68">
          <mxGeometry relative="1" as="geometry" />
        </mxCell>
        <mxCell id="tBwqaOOPQ_VqR0WvuA2_-71" value="Enemy_name" style="ellipse;whiteSpace=wrap;html=1;" vertex="1" parent="1">
          <mxGeometry x="-360" y="20" width="105" height="70" as="geometry" />
        </mxCell>
        <mxCell id="tBwqaOOPQ_VqR0WvuA2_-79" style="rounded=0;orthogonalLoop=1;jettySize=auto;html=1;exitX=1;exitY=0.5;exitDx=0;exitDy=0;entryX=0;entryY=0.25;entryDx=0;entryDy=0;endArrow=none;endFill=0;" edge="1" parent="1" source="tBwqaOOPQ_VqR0WvuA2_-72" target="tBwqaOOPQ_VqR0WvuA2_-68">
          <mxGeometry relative="1" as="geometry" />
        </mxCell>
        <mxCell id="tBwqaOOPQ_VqR0WvuA2_-72" value="Health" style="ellipse;whiteSpace=wrap;html=1;" vertex="1" parent="1">
          <mxGeometry x="-465" y="100" width="105" height="70" as="geometry" />
        </mxCell>
        <mxCell id="tBwqaOOPQ_VqR0WvuA2_-80" style="rounded=0;orthogonalLoop=1;jettySize=auto;html=1;exitX=1;exitY=0;exitDx=0;exitDy=0;entryX=0;entryY=0.75;entryDx=0;entryDy=0;endArrow=none;endFill=0;" edge="1" parent="1" source="tBwqaOOPQ_VqR0WvuA2_-73" target="tBwqaOOPQ_VqR0WvuA2_-68">
          <mxGeometry relative="1" as="geometry" />
        </mxCell>
        <mxCell id="tBwqaOOPQ_VqR0WvuA2_-73" value="Attack" style="ellipse;whiteSpace=wrap;html=1;" vertex="1" parent="1">
          <mxGeometry x="-440" y="210" width="105" height="70" as="geometry" />
        </mxCell>
        <mxCell id="tBwqaOOPQ_VqR0WvuA2_-81" style="rounded=0;orthogonalLoop=1;jettySize=auto;html=1;exitX=0.5;exitY=0;exitDx=0;exitDy=0;entryX=0.5;entryY=1;entryDx=0;entryDy=0;endArrow=none;endFill=0;" edge="1" parent="1" source="tBwqaOOPQ_VqR0WvuA2_-74" target="tBwqaOOPQ_VqR0WvuA2_-68">
          <mxGeometry relative="1" as="geometry" />
        </mxCell>
        <mxCell id="tBwqaOOPQ_VqR0WvuA2_-74" value="Defense" style="ellipse;whiteSpace=wrap;html=1;" vertex="1" parent="1">
          <mxGeometry x="-292.5" y="260" width="105" height="70" as="geometry" />
        </mxCell>
        <mxCell id="tBwqaOOPQ_VqR0WvuA2_-77" style="rounded=0;orthogonalLoop=1;jettySize=auto;html=1;exitX=0;exitY=1;exitDx=0;exitDy=0;entryX=0.75;entryY=0;entryDx=0;entryDy=0;endArrow=none;endFill=0;" edge="1" parent="1" source="tBwqaOOPQ_VqR0WvuA2_-75" target="tBwqaOOPQ_VqR0WvuA2_-68">
          <mxGeometry relative="1" as="geometry" />
        </mxCell>
        <mxCell id="tBwqaOOPQ_VqR0WvuA2_-75" value="SpriteSet" style="ellipse;whiteSpace=wrap;html=1;" vertex="1" parent="1">
          <mxGeometry x="-225" y="30" width="105" height="70" as="geometry" />
        </mxCell>
        <mxCell id="tBwqaOOPQ_VqR0WvuA2_-82" style="rounded=0;orthogonalLoop=1;jettySize=auto;html=1;exitX=0;exitY=0;exitDx=0;exitDy=0;entryX=1;entryY=0.75;entryDx=0;entryDy=0;endArrow=none;endFill=0;" edge="1" parent="1" source="tBwqaOOPQ_VqR0WvuA2_-76" target="tBwqaOOPQ_VqR0WvuA2_-68">
          <mxGeometry relative="1" as="geometry" />
        </mxCell>
        <mxCell id="tBwqaOOPQ_VqR0WvuA2_-76" value="Difficulty" style="ellipse;whiteSpace=wrap;html=1;" vertex="1" parent="1">
          <mxGeometry x="-150" y="190" width="105" height="70" as="geometry" />
        </mxCell>
      </root>
    </mxGraphModel>
  </diagram>
</mxfile>
